<svg width="18" height="18" viewBox="0 0 18 18" fill="none" xmlns="http://www.w3.org/2000/svg">
<path d="M1.38379 4.31659C1.3633 3.9348 1.03714 3.64191 0.655292 3.6624C0.273445 3.6829 -0.0194816 4.00902 0.0010131 4.3908L1.38379 4.31659ZM2.27545 0.778013C2.0121 1.05523 2.02338 1.49341 2.30064 1.75672C2.5779 2.02003 3.01614 2.00876 3.2795 1.73154L2.27545 0.778013ZM7.76507 16.2114C8.08883 16.4148 8.51627 16.3174 8.71974 15.9937C8.92321 15.67 8.82563 15.2426 8.50186 15.0391L7.76507 16.2114ZM11.8722 16.4386C11.498 16.3602 11.131 16.6001 11.0526 16.9743C10.9742 17.3485 11.2141 17.7154 11.5884 17.7938L11.8722 16.4386ZM12.363 12.2713L12.7834 11.8287L11.7794 10.8752L11.3589 11.3178L12.363 12.2713ZM14.167 11.6424L15.9307 12.6574L16.6215 11.4575L14.8578 10.4424L14.167 11.6424ZM16.2711 14.7619L14.9597 16.1424L15.9638 17.0959L17.2752 15.7155L16.2711 14.7619ZM5.63722 12.6544C2.05884 8.88754 1.45861 5.71022 1.38379 4.31659L0.0010131 4.3908C0.0926391 6.09771 0.817504 9.59136 4.63318 13.6079L5.63722 12.6544ZM6.90692 6.52806L7.17174 6.24934L6.16766 5.29581L5.90287 5.57453L6.90692 6.52806ZM7.37973 2.77916L6.21559 1.13292L5.08488 1.93225L6.24901 3.57847L7.37973 2.77916ZM6.4049 6.05129C5.90287 5.57453 5.90223 5.5752 5.90159 5.57588C5.90138 5.57612 5.90073 5.5768 5.90029 5.57726C5.89941 5.5782 5.89851 5.57915 5.89761 5.58013C5.89579 5.58209 5.89391 5.58413 5.89198 5.58626C5.8881 5.59052 5.88399 5.59512 5.87967 5.60009C5.87104 5.61002 5.86155 5.62137 5.8514 5.6342C5.83111 5.65984 5.80815 5.69134 5.78407 5.72897C5.73577 5.80444 5.68339 5.90382 5.63904 6.02845C5.54884 6.28189 5.49969 6.61751 5.56111 7.03664C5.68178 7.86011 6.22143 8.96748 7.63149 10.4517L8.63554 9.49823C7.31751 8.11081 6.99287 7.25635 6.93125 6.83591C6.90153 6.63307 6.93173 6.52619 6.94368 6.49263C6.95039 6.47377 6.95478 6.46852 6.95049 6.47524C6.9484 6.47849 6.94425 6.4846 6.93727 6.49343C6.93377 6.49784 6.92957 6.50293 6.92455 6.50871C6.92204 6.51159 6.91932 6.51465 6.91639 6.51788C6.91492 6.51949 6.9134 6.52114 6.91182 6.52284C6.91103 6.52369 6.91023 6.52455 6.90941 6.52542C6.909 6.52585 6.90838 6.52652 6.90817 6.52673C6.90754 6.52739 6.90692 6.52806 6.4049 6.05129ZM7.63149 10.4517C9.03731 11.9316 10.0992 12.5134 10.9093 12.645C11.3249 12.7124 11.6614 12.6585 11.9162 12.5581C12.0407 12.509 12.1393 12.4513 12.2132 12.3989C12.2501 12.3727 12.2808 12.3478 12.3057 12.3261C12.318 12.3153 12.329 12.3051 12.3385 12.2959C12.3433 12.2913 12.3477 12.2869 12.3517 12.2829C12.3538 12.2808 12.3558 12.2788 12.3576 12.2769C12.3586 12.2759 12.3595 12.275 12.3603 12.2741C12.3608 12.2736 12.3614 12.2729 12.3617 12.2727C12.3623 12.272 12.363 12.2713 11.861 11.7946C11.3589 11.3178 11.3596 11.3172 11.3601 11.3165C11.3604 11.3162 11.361 11.3156 11.3614 11.3151C11.3623 11.3143 11.3631 11.3135 11.3638 11.3126C11.3655 11.311 11.3671 11.3093 11.3686 11.3078C11.3717 11.3047 11.3746 11.3018 11.3774 11.2991C11.383 11.2937 11.388 11.2891 11.3924 11.2852C11.4013 11.2775 11.4079 11.2725 11.4121 11.2695C11.4207 11.2634 11.4199 11.2655 11.408 11.2701C11.3902 11.2771 11.3064 11.3067 11.1312 11.2783C10.7596 11.2179 9.95763 10.89 8.63554 9.49823L7.63149 10.4517ZM6.21559 1.13292C5.27986 -0.19033 3.40744 -0.413577 2.27545 0.778013L3.2795 1.73154C3.76217 1.22345 4.61189 1.26337 5.08488 1.93225L6.21559 1.13292ZM14.9597 16.1424C14.7021 16.4136 14.4326 16.5588 14.1706 16.5847L14.3067 17.9626C14.9963 17.8945 15.5544 17.5267 15.9638 17.0959L14.9597 16.1424ZM7.17174 6.24934C8.06492 5.30905 8.12816 3.83757 7.37973 2.77916L6.24901 3.57847C6.63873 4.12959 6.57897 4.86284 6.16766 5.29581L7.17174 6.24934ZM15.9307 12.6574C16.6886 13.0936 16.8368 14.1664 16.2711 14.7619L17.2752 15.7155C18.4799 14.4473 18.129 12.325 16.6215 11.4575L15.9307 12.6574ZM12.7834 11.8287C13.1392 11.4542 13.6937 11.37 14.167 11.6424L14.8578 10.4424C13.8437 9.85877 12.586 10.0261 11.7794 10.8752L12.7834 11.8287ZM8.50186 15.0391C7.59373 14.4685 6.62715 13.6964 5.63722 12.6544L4.63318 13.6079C5.69856 14.7294 6.75407 15.5762 7.76507 16.2114L8.50186 15.0391ZM14.1706 16.5847C13.6661 16.6345 12.8676 16.647 11.8722 16.4386L11.5884 17.7938C12.741 18.0351 13.6828 18.0242 14.3067 17.9626L14.1706 16.5847Z" fill="#394867"/>
</svg>
